<svg xmlns="http://www.w3.org/2000/svg" viewBox="0 0 2090 715" width="150px" height="100%" preserveAspectRatio="xMidYMid meet" style="width: 100%; height: 100%; transform: translate3d(0px, 0px, 0px);"><defs><clipPath id="__lottie_element_124"><rect width="2090" height="715" x="0" y="0"></rect></clipPath><mask id="__lottie_element_128" mask-type="alpha"><g transform="matrix(1,0,0,1,443,350.5)" opacity="1" style="display: block;"><g opacity="1" transform="matrix(1,0,0,1,0,0)"><path stroke-linecap="round" stroke-linejoin="round" fill-opacity="0" stroke="rgb(79,94,114)" stroke-opacity="1" stroke-width="57" d=" M71,301 C71,301 23.823999404907227,269.75299072265625 15,260 C5.5,249.5 2.5,235 21,222 C34.617000579833984,212.43099975585938 40.87900161743164,209.8719940185547 54,200.5 C68,190.5 72,175 63,168 C57.30799865722656,163.572998046875 28.822999954223633,157.87100219726562 19,156 C8.5,154 -8.092000007629395,147.98599243164062 -14,142.5 C-21,136 -19,116.5 -7,107.5 C5,98.5 33,90 48,84 C63,78 94,66 100,55 C106,44 110,42 101.5,31 C95.38600158691406,23.086999893188477 35.90700149536133,2.3559999465942383 24.5,-1.5 C-11,-13.5 -45,-21 -71,-54 C-85.88500213623047,-72.89299774169922 -80,-89 -76,-101 C-68.8550033569336,-122.43499755859375 -47,-133.5 -32,-127.5 C-19.893999099731445,-122.65799713134766 8.5,-107.5 8.5,-107.5"></path></g></g></mask><mask id="__lottie_element_134" mask-type="alpha"><g transform="matrix(1,0,0,1,443,350.5)" opacity="1" style="display: block;"><g opacity="1" transform="matrix(1,0,0,1,0,0)"><path stroke-linecap="round" stroke-linejoin="round" fill-opacity="0" stroke="rgb(79,94,114)" stroke-opacity="1" stroke-width="57" d=" M5.5,294 C5.5,294 45.5,267.5 51,258.5 C56.5,249.5 58.5,230.5 56,225 C53.5,219.5 12.5,203.5 8,199.5 C3.5,195.5 -2.5,180.5 7.5,175.5 C17.5,170.5 47,164 57,159.5 C67,155 81.5,139.5 84.5,130.5 C87.5,121.5 81.5,111 76,106 C70.5,101 37,83.5 21.5,82.5 C6,81.5 -26,58 -31.5,55 C-37,52 -31,32.5 -23.5,27.5 C-16,22.5 17.5,22 24.5,22 C31.5,22 92,-13.5 107,-24.5 C122,-35.5 143.5,-62 146.5,-76.5 C149.5,-91 142.5,-119 131.5,-123.5 C120.5,-128 55.5,-118 50.5,-113.5"></path></g></g></mask></defs><g clip-path="url(#__lottie_element_124)"><g transform="matrix(1.0000005960464478,-0.00001068997062247945,0.000010689975169952959,1,638.8937377929688,223.77032470703125)" opacity="1" style="display: block;"><g opacity="1" transform="matrix(1,0,0,1,0,0)"><path fill="rgb(255,255,255)" fill-opacity="1" d=" M-40.56999969482422,-62.832000732421875 C-47.47100067138672,-69.9020004272461 -59.28900146484375,-64.49400329589844 -53.5890007019043,-51.439998626708984 C-38.33700180053711,-27.6299991607666 -28.503000259399414,-0.7979999780654907 -13.119000434875488,22.952999114990234 C-3.005000114440918,38.630001068115234 8.38700008392334,55.10100173950195 25.885000228881836,63.11600112915039 C35.132999420166016,67.54900360107422 46.03900146484375,66.47699737548828 55.09600067138672,62.0880012512207 C37.819000244140625,35.3129997253418 17.222999572753906,10.932000160217285 -3.121999979019165,-13.508999824523926 C-16.010000228881836,-29.61199951171875 -29.941999435424805,-45.084999084472656 -40.56999969482422,-62.832000732421875z"></path></g></g><g transform="matrix(-1.0000003576278687,0.0007398015004582703,0.0007398019661195576,0.9999997019767761,314.4803161621094,223.8900909423828)" opacity="1" style="display: block;"><g opacity="1" transform="matrix(1,0,0,1,0,0)"><path fill="rgb(255,255,255)" fill-opacity="1" d=" M-40.56999969482422,-62.832000732421875 C-47.47100067138672,-69.9020004272461 -59.28900146484375,-64.49400329589844 -53.5890007019043,-51.439998626708984 C-38.33700180053711,-27.6299991607666 -28.503000259399414,-0.7979999780654907 -13.119000434875488,22.952999114990234 C-3.005000114440918,38.630001068115234 8.38700008392334,55.10100173950195 25.885000228881836,63.11600112915039 C35.132999420166016,67.54900360107422 46.03900146484375,66.47699737548828 55.09600067138672,62.0880012512207 C37.819000244140625,35.3129997253418 17.222999572753906,10.932000160217285 -3.121999979019165,-13.508999824523926 C-16.010000228881836,-29.61199951171875 -29.941999435424805,-45.084999084472656 -40.56999969482422,-62.832000732421875z"></path></g></g><g transform="matrix(1.0000005960464478,-0.000008547966899641324,0.000008547970537620131,1,672.1355590820312,206.1442108154297)" opacity="1" style="display: block;"><g opacity="1" transform="matrix(1,0,0,1,0,0)"><path fill="rgb(255,255,255)" fill-opacity="1" d=" M-65.47200012207031,-62.23500061035156 C-78.51599884033203,-66.71800231933594 -85.6969985961914,-54.959999084472656 -73.81099700927734,-45.207000732421875 C-68.12999725341797,-42.314998626708984 -63.534000396728516,-37.85300064086914 -59.11600112915039,-33.34600067138672 C-37.94900131225586,-11.38599967956543 -19.836000442504883,13.409000396728516 2.4030001163482666,34.35599899291992 C15.409000396728516,46.597999572753906 29.97100067138672,59.060001373291016 47.96799850463867,62.65599822998047 C60.2400016784668,65.19599914550781 72.36599731445312,58.84000015258789 79.85199737548828,49.327999114990234 C35.59400177001953,16.945999145507812 -9.765000343322754,-14.10099983215332 -51.61600112915039,-49.61000061035156 C-56.37200164794922,-53.67599868774414 -61.34700012207031,-57.52299880981445 -65.47200012207031,-62.23500061035156z"></path></g></g><g transform="matrix(-1.0000003576278687,0.0007419435423798859,0.0007419440080411732,0.9999997019767761,281.22503662109375,206.28916931152344)" opacity="1" style="display: block;"><g opacity="1" transform="matrix(1,0,0,1,0,0)"><path fill="rgb(255,255,255)" fill-opacity="1" d=" M-65.47200012207031,-62.23500061035156 C-78.51599884033203,-66.71800231933594 -85.6969985961914,-54.959999084472656 -73.81099700927734,-45.207000732421875 C-68.12999725341797,-42.314998626708984 -63.534000396728516,-37.85300064086914 -59.11600112915039,-33.34600067138672 C-37.94900131225586,-11.38599967956543 -19.836000442504883,13.409000396728516 2.4030001163482666,34.35599899291992 C15.409000396728516,46.597999572753906 29.97100067138672,59.060001373291016 47.96799850463867,62.65599822998047 C60.2400016784668,65.19599914550781 72.36599731445312,58.84000015258789 79.85199737548828,49.327999114990234 C35.59400177001953,16.945999145507812 -9.765000343322754,-14.10099983215332 -51.61600112915039,-49.61000061035156 C-56.37200164794922,-53.67599868774414 -61.34700012207031,-57.52299880981445 -65.47200012207031,-62.23500061035156z"></path></g></g><g transform="matrix(1.0000005960464478,0,0,1,708.674072265625,182.73486328125)" opacity="1" style="display: block;"><g opacity="1" transform="matrix(1,0,0,1,0,0)"><path fill="rgb(255,255,255)" fill-opacity="1" d=" M-95.81700134277344,-57.4370002746582 C-111.71099853515625,-63.08399963378906 -118.07599639892578,-47.26100158691406 -102.01200103759766,-38.82500076293945 C-89.30000305175781,-36.138999938964844 -78.55500030517578,-28.48900032043457 -68.0009994506836,-21.326000213623047 C-36.04399871826172,0.9860000014305115 -6.289000034332275,26.761999130249023 28.325000762939453,45.03799819946289 C45.0890007019043,53.80099868774414 64.18699645996094,61.347999572753906 83.4020004272461,57.678001403808594 C95.51200103759766,55.52000045776367 104.89099884033203,46.53499984741211 111.3499984741211,36.553001403808594 C106.81400299072266,33.645999908447266 101.80899810791016,31.591999053955078 96.89099884033203,29.464000701904297 C65.21299743652344,15.444999694824219 33.31700134277344,1.9839999675750732 1.4190000295639038,-11.47700023651123 C-31.492000579833984,-25.687000274658203 -64.74099731445312,-39.470001220703125 -95.81700134277344,-57.4370002746582z"></path></g></g><g transform="matrix(-1.0000003576278687,0.00075080047827214,0.0007508009439334273,0.9999997019767761,244.66885375976562,182.90689086914062)" opacity="1" style="display: block;"><g opacity="1" transform="matrix(1,0,0,1,0,0)"><path fill="rgb(255,255,255)" fill-opacity="1" d=" M-95.81700134277344,-57.4370002746582 C-111.71099853515625,-63.08399963378906 -118.07599639892578,-47.26100158691406 -102.01200103759766,-38.82500076293945 C-89.30000305175781,-36.138999938964844 -78.55500030517578,-28.48900032043457 -68.0009994506836,-21.326000213623047 C-36.04399871826172,0.9860000014305115 -6.289000034332275,26.761999130249023 28.325000762939453,45.03799819946289 C45.0890007019043,53.80099868774414 64.18699645996094,61.347999572753906 83.4020004272461,57.678001403808594 C95.51200103759766,55.52000045776367 104.89099884033203,46.53499984741211 111.3499984741211,36.553001403808594 C106.81400299072266,33.645999908447266 101.80899810791016,31.591999053955078 96.89099884033203,29.464000701904297 C65.21299743652344,15.444999694824219 33.31700134277344,1.9839999675750732 1.4190000295639038,-11.47700023651123 C-31.492000579833984,-25.687000274658203 -64.74099731445312,-39.470001220703125 -95.81700134277344,-57.4370002746582z"></path></g></g><g transform="matrix(1.0000005960464478,0.0000029789448490191717,-0.0000029789484869979788,1,745.6929321289062,154.52720642089844)" opacity="1" style="display: block;"><g opacity="1" transform="matrix(1,0,0,1,0,0)"><path fill="rgb(255,255,255)" fill-opacity="1" d=" M-124.83599853515625,-47.814998626708984 C-140.39300537109375,-53.5620002746582 -146.0030059814453,-34.75899887084961 -132.8350067138672,-29.229999542236328 C-122.29499816894531,-29.17099952697754 -112.16799926757812,-25.839000701904297 -102.30400085449219,-22.447999954223633 C-70.69999694824219,-10.866000175476074 -40.38600158691406,3.828000068664551 -9.442000389099121,17.010000228881836 C19.18199920654297,29.062000274658203 48.17499923706055,40.9379997253418 78.72200012207031,47.10300064086914 C87.88200378417969,49.12900161743164 97.31999969482422,48.981998443603516 106.64099884033203,48.79100036621094 C117.69400024414062,48.57099914550781 129.18800354003906,43.43299865722656 135.19200134277344,33.86199951171875 C137.7899932861328,29.89900016784668 139.11199951171875,25.273000717163086 140.197998046875,20.70800018310547 C59.15399932861328,-0.22499999403953552 -22.652999877929688,-18.117000579833984 -103.3740005493164,-40.297000885009766 C-110.6259994506836,-42.499000549316406 -118.15699768066406,-44.11600112915039 -124.83599853515625,-47.814998626708984z"></path></g></g><g transform="matrix(-0.9998639225959778,0.016530495136976242,0.016530504450201988,0.99986332654953,207.38937377929688,158.95260620117188)" opacity="1" style="display: block;"><g opacity="1" transform="matrix(1,0,0,1,0,0)"><path fill="rgb(255,255,255)" fill-opacity="1" d=" M-124.83599853515625,-47.814998626708984 C-140.39300537109375,-53.5620002746582 -146.0030059814453,-34.75899887084961 -132.8350067138672,-29.229999542236328 C-122.29499816894531,-29.17099952697754 -112.16799926757812,-25.839000701904297 -102.30400085449219,-22.447999954223633 C-70.69999694824219,-10.866000175476074 -40.38600158691406,3.828000068664551 -9.442000389099121,17.010000228881836 C19.18199920654297,29.062000274658203 48.17499923706055,40.9379997253418 78.72200012207031,47.10300064086914 C87.88200378417969,49.12900161743164 97.31999969482422,48.981998443603516 106.64099884033203,48.79100036621094 C117.69400024414062,48.57099914550781 129.18800354003906,43.43299865722656 135.19200134277344,33.86199951171875 C137.7899932861328,29.89900016784668 139.11199951171875,25.273000717163086 140.197998046875,20.70800018310547 C59.15399932861328,-0.22499999403953552 -22.652999877929688,-18.117000579833984 -103.3740005493164,-40.297000885009766 C-110.6259994506836,-42.499000549316406 -118.15699768066406,-44.11600112915039 -124.83599853515625,-47.814998626708984z"></path></g></g><g transform="matrix(1.0000005960464478,-0.0000014502164731311495,0.0000014502155636364478,1,723.14208984375,134.01565551757812)" opacity="1" style="display: block;"><g opacity="1" transform="matrix(1,0,0,1,0,0)"><path fill="rgb(255,255,255)" fill-opacity="1" d=" M-94.10800170898438,-55.03099822998047 C-106.7760009765625,-54.766998291015625 -119.45999908447266,-53.16699981689453 -131.68800354003906,-49.76100158691406 C-141.69900512695312,-46.42900085449219 -151.91400146484375,-40.060001373291016 -154.98199462890625,-29.3439998626709 C-158.7989959716797,-19.6560001373291 -152.67799377441406,-9.36299991607666 -156.11300659179688,0.36899998784065247 C-158.8730010986328,9.645999908447266 -166.27099609375,16.632999420166016 -174.1540069580078,21.78499984741211 C-185.29600524902344,28.96299934387207 -198.38900756835938,32.95500183105469 -211.58599853515625,33.68899917602539 C-208.88499450683594,39.237998962402344 -205.50799560546875,44.685001373291016 -200.2969970703125,48.20800018310547 C-189.552001953125,55.38600158691406 -175.53399658203125,56.92599868774414 -163.30599975585938,52.992000579833984 C-153.6179962158203,50.51100158691406 -144.63600158691406,44.16899871826172 -136.7449951171875,38.314998626708984 C-115.16400146484375,22.304000854492188 -111.6050033569336,-5.375999927520752 -102.28500366210938,-27.30299949645996 C-88.7509994506836,-28.961999893188477 -75.18699645996094,-26.334999084472656 -61.88800048828125,-24.073999404907227 C-4.388999938964844,-12.315999984741211 51.7140007019043,6.10699987411499 110.03500366210938,13.814000129699707 C130.65899658203125,16.016000747680664 151.85699462890625,17.617000579833984 172.23199462890625,12.654999732971191 C182.80099487304688,10.057000160217285 192.82699584960938,5.107999801635742 200.69500732421875,-2.4809999465942383 C205.86199951171875,-8.616999626159668 209.38400268554688,-15.91100025177002 211.58599853515625,-23.58799934387207 C178.89500427246094,-24.277999877929688 146.33700561523438,-27.860000610351562 113.95500183105469,-32.17599868774414 C79.8550033569336,-37.09400177001953 45.69499969482422,-41.68899917602539 11.625,-46.768001556396484 C-23.45800018310547,-51.097999572753906 -58.6870002746582,-55.75 -94.10800170898438,-55.03099822998047z"></path></g></g><g transform="matrix(-1.0000005960464478,-0.0000014502164731311495,-0.0000014502155636364478,1,230.19290161132812,134.01565551757812)" opacity="1" style="display: block;"><g opacity="1" transform="matrix(1,0,0,1,0,0)"><path fill="rgb(255,255,255)" fill-opacity="1" d=" M-94.10800170898438,-55.03099822998047 C-106.7760009765625,-54.766998291015625 -119.45999908447266,-53.16699981689453 -131.68800354003906,-49.76100158691406 C-141.69900512695312,-46.42900085449219 -151.91400146484375,-40.060001373291016 -154.98199462890625,-29.3439998626709 C-158.7989959716797,-19.6560001373291 -152.67799377441406,-9.36299991607666 -156.11300659179688,0.36899998784065247 C-158.8730010986328,9.645999908447266 -166.27099609375,16.632999420166016 -174.1540069580078,21.78499984741211 C-185.29600524902344,28.96299934387207 -198.38900756835938,32.95500183105469 -211.58599853515625,33.68899917602539 C-208.88499450683594,39.237998962402344 -205.50799560546875,44.685001373291016 -200.2969970703125,48.20800018310547 C-189.552001953125,55.38600158691406 -175.53399658203125,56.92599868774414 -163.30599975585938,52.992000579833984 C-153.6179962158203,50.51100158691406 -144.63600158691406,44.16899871826172 -136.7449951171875,38.314998626708984 C-115.16400146484375,22.304000854492188 -111.6050033569336,-5.375999927520752 -102.28500366210938,-27.30299949645996 C-88.7509994506836,-28.961999893188477 -75.18699645996094,-26.334999084472656 -61.88800048828125,-24.073999404907227 C-4.388999938964844,-12.315999984741211 51.7140007019043,6.10699987411499 110.03500366210938,13.814000129699707 C130.65899658203125,16.016000747680664 151.85699462890625,17.617000579833984 172.23199462890625,12.654999732971191 C182.80099487304688,10.057000160217285 192.82699584960938,5.107999801635742 200.69500732421875,-2.4809999465942383 C205.86199951171875,-8.616999626159668 209.38400268554688,-15.91100025177002 211.58599853515625,-23.58799934387207 C178.89500427246094,-24.277999877929688 146.33700561523438,-27.860000610351562 113.95500183105469,-32.17599868774414 C79.8550033569336,-37.09400177001953 45.69499969482422,-41.68899917602539 11.625,-46.768001556396484 C-23.45800018310547,-51.097999572753906 -58.6870002746582,-55.75 -94.10800170898438,-55.03099822998047z"></path></g></g><g transform="matrix(1,0,0,1,476.48699951171875,398.4179992675781)" opacity="1" style="display: block;"><g opacity="1" transform="matrix(1,0,0,1,0,0)"><path fill="rgb(255,255,255)" fill-opacity="1" d=" M0,-314.6210021972656 C-21.78700065612793,-314.6210021972656 -39.44900131225586,-296.9590148925781 -39.44900131225586,-275.1719970703125 C-39.43299865722656,-259.6700134277344 -30.34000015258789,-245.61399841308594 -16.207000732421875,-239.2449951171875 C-16.207000732421875,-239.2449951171875 -6.150000095367432,244.93299865722656 -6.150000095367432,244.93299865722656 C-5.775000095367432,269.01300048828125 -6.370999813079834,291.1199951171875 0,314.6210021972656 C6.01800012588501,292.7640075683594 3.746000051498413,269.531005859375 4.242000102996826,244.93299865722656 C4.242000102996826,244.93299865722656 16.274999618530273,-239.2899932861328 16.274999618530273,-239.2899932861328 C30.367000579833984,-245.6719970703125 39.428001403808594,-259.7019958496094 39.44900131225586,-275.1719970703125 C39.44900131225586,-296.9590148925781 21.78700065612793,-314.6210021972656 0,-314.6210021972656z"></path></g></g><g mask="url(#__lottie_element_134)" style="display: block;"><g transform="matrix(1,0,0,1,-57,-49.5)" opacity="1"><g opacity="1" transform="matrix(1,0,0,1,518.5440063476562,688.7680053710938)"><path fill="rgb(255,255,255)" fill-opacity="1" d=" M-7.545000076293945,3.7070000171661377 C-2.36299991607666,4.000999927520752 2.7739999294281006,2.7820000648498535 7.545000076293945,0.8149999976158142 C5.60699987411499,-0.7409999966621399 3.6549999713897705,-2.2230000495910645 1.7170000076293945,-3.75 C-1.5119999647140503,-1.4450000524520874 -4.741000175476074,0.8889999985694885 -7.545000076293945,3.7070000171661377z"></path></g><g opacity="1" transform="matrix(1,0,0,1,606.4199829101562,322.968994140625)"><path fill="rgb(255,255,255)" fill-opacity="1" d=" M36.54399871826172,-54.472999572753906 C26.43000030517578,-65.40899658203125 12.90999984741211,-74.71800231933594 -2.503000020980835,-74.79100036621094 C-16.506999969482422,-74.55599975585938 -27.839000701904297,-65.3219985961914 -38.42300033569336,-57.23400115966797 C-44.47100067138672,-51.77299880981445 -51.707000732421875,-45.9900016784668 -52.95500183105469,-37.41699981689453 C-52.19200134277344,-31.677000045776367 -46.23099899291992,-29.18199920654297 -41.3129997253418,-27.875999450683594 C-27.704999923706055,-24.381999969482422 -13.51099967956543,-24.64699935913086 0.4339999854564667,-25.233999252319336 C4.881999969482422,-25.174999237060547 9.960000038146973,-25.805999755859375 13.673999786376953,-22.781999588012695 C19.267000198364258,-18.274999618530273 20.089000701904297,-10.333000183105469 19.854000091552734,-3.625 C18.972999572753906,8.807999610900879 10.281999588012695,18.73200035095215 1.1369999647140503,26.3799991607666 C-16.389999389648438,40.39899826049805 -37.45399856567383,48.823001861572266 -58.137001037597656,56.941001892089844 C-41.81399917602539,62.137001037597656 -25.63800048828125,67.71600341796875 -9.711000442504883,74.02799987792969 C-5.894000053405762,76.20099639892578 -2.1500000953674316,73.20500183105469 1.2410000562667847,71.63400268554688 C10.664999961853027,66.37899780273438 19.854000091552734,60.49399948120117 27.809999465942383,53.13999938964844 C44.67599868774414,38.46099853515625 57.374000549316406,17.600000381469727 58.137001037597656,-5.166999816894531 C58.005001068115234,-23.677000045776367 49.25600051879883,-41.334999084472656 36.54399871826172,-54.472999572753906z M-9.74899959564209,-46.849998474121094 C-13.430000305175781,-46.849998474121094 -16.415000915527344,-49.834999084472656 -16.415000915527344,-53.51599884033203 C-16.415000915527344,-57.196998596191406 -13.430000305175781,-60.18199920654297 -9.74899959564209,-60.18199920654297 C-6.067999839782715,-60.18199920654297 -3.0829999446868896,-57.196998596191406 -3.0829999446868896,-53.51599884033203 C-3.0829999446868896,-49.834999084472656 -6.067999839782715,-46.849998474121094 -9.74899959564209,-46.849998474121094z"></path></g><g opacity="1" transform="matrix(1,0,0,1,522.3090209960938,484.9700012207031)"><path fill="rgb(255,255,255)" fill-opacity="1" d=" M51.72200012207031,2.2009999752044678 C32.24300003051758,-7.809999942779541 11.208000183105469,-14.166000366210938 -9.343000411987305,-21.53499984741211 C-19.09000015258789,-24.985000610351562 -29.57200050354004,-27.80299949645996 -37.51300048828125,-34.74599838256836 C-40.38999938964844,-37.064998626708984 -42.75299835205078,-41.48400115966797 -39.77299880981445,-44.69900131225586 C-31.597000122070312,-54.51900100708008 -17.900999069213867,-55.88399887084961 -6.186999797821045,-58.39400100708008 C-14.524999618530273,-62.09299850463867 -23.493999481201172,-64.00199890136719 -32.13999938964844,-66.83499908447266 C-40.301998138427734,-68.88999938964844 -47.95000076293945,-72.64800262451172 -56.125999450683594,-74.5270004272461 C-63.744998931884766,-70.98899841308594 -70.24700164794922,-65.02999877929688 -75.20899963378906,-58.277000427246094 C-75.20899963378906,-58.277000427246094 -75.20899963378906,-58.277000427246094 -75.20899963378906,-58.277000427246094 C-80.12699890136719,-51.72999954223633 -79.77400207519531,-43.0989990234375 -78.90799713134766,-35.391998291015625 C-76.01599884033203,-20.917999267578125 -64.4489974975586,-9.996999740600586 -52.26499938964844,-2.671999931335449 C-37.762001037597656,5.107999801635742 -21.541000366210938,8.718999862670898 -6.230999946594238,14.503000259399414 C9.446000099182129,20.65399932861328 26.590999603271484,23.941999435424805 40.41899871826172,34.04100036621094 C43.91299819946289,36.72700119018555 47.641998291015625,42.04100036621094 43.957000732421875,46.12200164794922 C38.965999603271484,51.95000076293945 30.981000900268555,53.18199920654297 24.243000030517578,55.986000061035156 C37.042999267578125,59.37699890136719 50.37200164794922,63.619998931884766 59.85499954223633,73.39600372314453 C62.64400100708008,76.66899871826172 65.8290023803711,71.97200012207031 67.97200012207031,70.20999908447266 C77.45500183105469,61.54899978637695 81.50599670410156,47.79499816894531 78.39399719238281,35.34700012207031 C75.26699829101562,20.902999877929688 64.552001953125,9.041999816894531 51.72200012207031,2.2009999752044678z"></path></g><g opacity="1" transform="matrix(1,0,0,1,527.0800170898438,623.916015625)"><path fill="rgb(255,255,255)" fill-opacity="1" d=" M16.902999877929688,-22.64299964904785 C7.816999912261963,-27.707000732421875 -2.7090001106262207,-31.02400016784668 -10.019000053405762,-38.73099899291992 C-12.484999656677246,-41.35900115966797 -9.137999534606934,-44.26599884033203 -8.008000373840332,-46.62900161743164 C-19.472000122070312,-49.11000061035156 -30.878000259399414,-51.78099822998047 -42.29800033569336,-54.4379997253418 C-44.11800003051758,-42.224998474121094 -42.44599914550781,-28.54400062561035 -34.51900100708008,-18.665000915527344 C-22.55500030517578,-5.644999980926514 -3.3980000019073486,-3.7360000610351562 9.916000366210938,7.406000137329102 C14.319999694824219,11.208000183105469 18.033000946044922,16.624000549316406 17.593000411987305,22.701000213623047 C18.033000946044922,30.819000244140625 13.218000411987305,37.74800109863281 9.343000411987305,44.45600128173828 C12.381999969482422,47.78799819946289 15.46399974822998,51.090999603271484 18.503000259399414,54.4379997253418 C33.784000396728516,42.209999084472656 46.14400100708008,22.70199966430664 42.23899841308594,2.4149999618530273 C39.56700134277344,-10.149999618530273 27.868000030517578,-17.739999771118164 16.902999877929688,-22.64299964904785z"></path></g></g></g><g mask="url(#__lottie_element_128)" style="display: block;"><g transform="matrix(1,0,0,1,-57,-49.5)" opacity="1"><g opacity="1" transform="matrix(1,0,0,1,525.2990112304688,655.3720092773438)"><path fill="rgb(255,255,255)" fill-opacity="1" d=" M-1.8819999694824219,2.9000000953674316 C-5.9629998207092285,-5.290999889373779 -5.729000091552734,-15.376999855041504 -0.6349999904632568,-23.054000854492188 C-9.001999855041504,-27.868999481201172 -17.660999298095703,-32.167999267578125 -25.983999252319336,-37.055999755859375 C-30.41699981689453,-30.538000106811523 -30.21299934387207,-22.201000213623047 -29.27400016784668,-14.6850004196167 C-26.558000564575195,0.9919999837875366 -16.340999603271484,14.350000381469727 -4.260000228881836,24.229000091552734 C5.4720001220703125,31.524999618530273 17.30299949645996,37.93899917602539 29.823999404907227,36.95600128173828 C17.11199951171875,28.016000747680664 4.900000095367432,17.152999877929688 -1.8819999694824219,2.9000000953674316z"></path></g><g opacity="1" transform="matrix(1,0,0,1,522.9000244140625,551.5819702148438)"><path fill="rgb(255,255,255)" fill-opacity="1" d=" M48.340999603271484,5.9019999504089355 C33.29499816894531,-4.682000160217285 14.168000221252441,-5.019000053405762 -2.9769999980926514,-9.994999885559082 C-10.345999717712402,-12.152999877929688 -18.509000778198242,-14.206999778747559 -23.660999298095703,-20.31399917602539 C-24.527000427246094,-23.19099998474121 -24.777000427246094,-26.83300018310547 -22.559999465942383,-29.16699981689453 C-17.084999084472656,-35.84600067138672 -8.701000213623047,-38.869998931884766 -1.24399995803833,-42.73099899291992 C-11.901000022888184,-46.972999572753906 -22.940000534057617,-50.12799835205078 -33.62699890136719,-54.3120002746582 C-36.27299880981445,-54.97999954223633 -38.96500015258789,-56.659000396728516 -41.691001892089844,-56.7140007019043 C-42.08000183105469,-56.72200012207031 -42.470001220703125,-56.69599914550781 -42.861000061035156,-56.630001068115234 C-53.034000396728516,-47.14699935913086 -60.41600036621094,-33.6150016784668 -59.43299865722656,-19.361000061035156 C-59.138999938964844,-7.206999778747559 -50.7140007019043,3.5239999294281006 -40.130001068115234,8.866999626159668 C-26.229000091552734,15.84000015258789 -10.727999687194824,18.55500030517578 4.449999809265137,21.226999282836914 C11.11400032043457,22.57699966430664 18.058000564575195,23.724000930786133 23.974000930786133,27.291000366210938 C25.413000106811523,28.392000198364258 27.423999786376953,29.78700065612793 27.173999786376953,31.871000289916992 C25.309999465942383,36.112998962402344 20.55299949645996,37.83100128173828 17.749000549316406,41.3390007019043 C26.482999801635742,45.14099884033203 34.763999938964844,49.9119987487793 42.04499816894531,56.07699966430664 C43.52799987792969,57.676998138427734 45.52299880981445,55.88600158691406 46.74100112915039,54.88800048828125 C55.34299850463867,47.4900016784668 60.39400100708008,35.891998291015625 59.395999908447266,24.545000076293945 C58.676998138427734,17.10300064086914 54.667999267578125,9.982999801635742 48.340999603271484,5.9019999504089355z"></path></g><g opacity="1" transform="matrix(1,0,0,1,512.031005859375,366.5450134277344)"><path fill="rgb(255,255,255)" fill-opacity="1" d=" M110.11799621582031,68.98400115966797 C108.48899841308594,60.92499923706055 102.44000244140625,54.68600082397461 96.28900146484375,49.6510009765625 C85.96900177001953,41.54800033569336 73.81700134277344,36.250999450683594 61.779998779296875,31.260000228881836 C31.393999099731445,19.722000122070312 -0.6230000257492065,12.454999923706055 -29.81999969482422,-2.135999917984009 C-43.26599884033203,-8.859000205993652 -56.71099853515625,-16.888999938964844 -65.93000030517578,-29.058000564575195 C-73.04900360107422,-38.39400100708008 -75.35299682617188,-51.69300079345703 -70.06900024414062,-62.409000396728516 C-67.54399871826172,-67.4000015258789 -61.74599838256836,-69.29299926757812 -56.46200180053711,-68.83799743652344 C-41.106998443603516,-68.39800262451172 -25.386999130249023,-67.57599639892578 -10.428999900817871,-71.81800079345703 C-6.730000019073486,-73.0510025024414 -2.4119999408721924,-74.6520004272461 -0.7829999923706055,-78.54199981689453 C1.1109999418258667,-82.02100372314453 -1.4730000495910645,-85.80799865722656 -3.0880000591278076,-88.8759994506836 C-9.958000183105469,-98.16799926757812 -19.558000564575195,-104.93599700927734 -29.084999084472656,-111.23300170898438 C-35.59199905395508,-115.44999694824219 -43.29499816894531,-118.34400177001953 -51.069000244140625,-118.3759994506836 C-53.65999984741211,-118.38700103759766 -56.2599983215332,-118.08100128173828 -58.82500076293945,-117.39800262451172 C-74.10600280761719,-113.96299743652344 -86.15899658203125,-102.85099792480469 -95.69999694824219,-90.9749984741211 C-104.15499877929688,-79.68699645996094 -110.77400207519531,-66.06400299072266 -110.45099639892578,-51.66400146484375 C-110.6709976196289,-43.54600143432617 -110.23200225830078,-35.222999572753906 -107.01699829101562,-27.634000778198242 C-98.2979965209961,-3.3989999294281006 -78.08399963378906,14.77400016784668 -56.0359992980957,27.017000198364258 C-23.610000610351562,44.64699935913086 13.015000343322754,51.428001403808594 47.98099899291992,62.12900161743164 C55.70199966430664,64.59500122070312 63.880001068115234,66.26899719238281 70.77899932861328,70.68699645996094 C73.21600341796875,72.375 76.09100341796875,75.54499816894531 74.46199798583984,78.70099639892578 C71.7020034790039,83.06099700927734 67.12200164794922,85.71800231933594 62.70399856567383,88.11100006103516 C53.0890007019043,93.33699798583984 42.34299850463867,95.86199951171875 32.20000076293945,99.83999633789062 C36.22200012207031,102.80500030517578 41.125,104.06700134277344 45.73400115966797,105.8290023803711 C53.83700180053711,108.70600128173828 61.736000061035156,112.15599822998047 69.5009994506836,115.88400268554688 C72.83300018310547,117.38099670410156 76.75199890136719,119.71600341796875 80.30400085449219,117.39700317382812 C92.03299713134766,111.23200225830078 102.93900299072266,102.0719985961914 108.06199645996094,89.53600311279297 C110.91000366210938,83.09200286865234 110.7490005493164,75.85399627685547 110.11799621582031,68.98400115966797z M-30.514999389648438,-103.75900268554688 C-26.833999633789062,-103.75900268554688 -23.849000930786133,-100.77400207519531 -23.849000930786133,-97.09300231933594 C-23.849000930786133,-93.41200256347656 -26.833999633789062,-90.427001953125 -30.514999389648438,-90.427001953125 C-34.19599914550781,-90.427001953125 -37.18000030517578,-93.41200256347656 -37.18000030517578,-97.09300231933594 C-37.18000030517578,-100.77400207519531 -34.19599914550781,-103.75900268554688 -30.514999389648438,-103.75900268554688z"></path></g></g></g><g fill="rgb(255,255,255)" font-size="93" font-family="Campton" font-style="normal" font-weight="500" aria-label="HIPAACOMPLIANT" transform="matrix(2.015160083770752,0,0,2.015160083770752,962.0742797851562,364.79229736328125)" opacity="1" style="display: block;"><path stroke-linecap="butt" stroke-linejoin="round" stroke-miterlimit="4" d=" M49.76,-63.24 C49.76,-63.24 49.76,-36.18 49.76,-36.18 C49.76,-36.18 18.23,-36.18 18.23,-36.18 C18.23,-36.18 18.23,-63.24 18.23,-63.24 C18.23,-63.24 7.07,-63.24 7.07,-63.24 C7.07,-63.24 7.07,0 7.07,0 C7.07,0 18.23,0 18.23,0 C18.23,0 18.23,-25.85 18.23,-25.85 C18.23,-25.85 49.76,-25.85 49.76,-25.85 C49.76,-25.85 49.76,0 49.76,0 C49.76,0 60.82,0 60.82,0 C60.82,0 60.82,-63.24 60.82,-63.24 C60.82,-63.24 49.76,-63.24 49.76,-63.24z M73.56,-63.24 C73.56,-63.24 73.56,0 73.56,0 C73.56,0 84.72,0 84.72,0 C84.72,0 84.72,-63.24 84.72,-63.24 C84.72,-63.24 73.56,-63.24 73.56,-63.24z M97.46,0 C97.46,0 108.62,0 108.62,0 C108.62,0 108.62,-18.51 108.62,-18.51 C108.62,-18.51 119.69,-18.51 119.69,-18.51 C127.75,-18.51 134.17,-20.58 138.94,-24.74 C143.84,-28.89 146.29,-34.44 146.29,-41.39 C146.29,-47.9 143.99,-53.16 139.41,-57.2 C134.82,-61.22 128.77,-63.24 121.27,-63.24 C121.27,-63.24 97.46,-63.24 97.46,-63.24 C97.46,-63.24 97.46,0 97.46,0z M108.62,-52.92 C108.62,-52.92 120.9,-52.92 120.9,-52.92 C125.18,-52.92 128.63,-51.86 131.27,-49.76 C133.9,-47.65 135.22,-44.86 135.22,-41.39 C135.22,-37.6 133.9,-34.55 131.27,-32.22 C128.63,-29.9 125.18,-28.74 120.9,-28.74 C120.9,-28.74 108.62,-28.74 108.62,-28.74 C108.62,-28.74 108.62,-52.92 108.62,-52.92z M202.37,0 C202.37,0 214.18,0 214.18,0 C214.18,0 186.56,-63.61 186.56,-63.61 C186.56,-63.61 176.14,-63.61 176.14,-63.61 C176.14,-63.61 148.34,0 148.34,0 C148.34,0 160.33,0 160.33,0 C160.33,0 166.19,-14.04 166.19,-14.04 C166.19,-14.04 196.42,-14.04 196.42,-14.04 C196.42,-14.04 202.37,0 202.37,0z M170.56,-24.37 C170.56,-24.37 181.26,-50.03 181.26,-50.03 C181.26,-50.03 192.14,-24.37 192.14,-24.37 C192.14,-24.37 170.56,-24.37 170.56,-24.37z M270.63,0 C270.63,0 282.44,0 282.44,0 C282.44,0 254.82,-63.61 254.82,-63.61 C254.82,-63.61 244.4,-63.61 244.4,-63.61 C244.4,-63.61 216.6,0 216.6,0 C216.6,0 228.59,0 228.59,0 C228.59,0 234.45,-14.04 234.45,-14.04 C234.45,-14.04 264.68,-14.04 264.68,-14.04 C264.68,-14.04 270.63,0 270.63,0z M238.82,-24.37 C238.82,-24.37 249.52,-50.03 249.52,-50.03 C249.52,-50.03 260.4,-24.37 260.4,-24.37 C260.4,-24.37 238.82,-24.37 238.82,-24.37z M22.69,101.38 C18.6,97.16 16.55,91.83 16.55,85.38 C16.55,78.93 18.6,73.6 22.69,69.38 C26.78,65.23 31.93,63.15 38.13,63.15 C43.09,63.15 47.23,64.47 50.55,67.11 C53.86,69.74 56.14,73.48 57.38,78.31 C57.38,78.31 68.91,78.31 68.91,78.31 C67.43,70.56 63.89,64.3 58.31,59.53 C52.73,54.81 46,52.46 38.13,52.46 C28.95,52.46 21.14,55.59 14.69,61.85 C8.37,68.05 5.21,75.89 5.21,85.38 C5.21,94.8 8.37,102.65 14.69,108.91 C21.14,115.17 28.95,118.3 38.13,118.3 C46.07,118.3 52.79,115.98 58.31,111.33 C63.89,106.55 67.43,100.26 68.91,92.45 C68.91,92.45 57.38,92.45 57.38,92.45 C56.14,97.28 53.86,101.02 50.55,103.65 C47.23,106.29 43.09,107.61 38.13,107.61 C31.93,107.61 26.78,105.53 22.69,101.38z M77.84,85.38 C77.84,94.56 81.03,102.34 87.42,108.72 C93.81,115.11 101.59,118.3 110.76,118.3 C119.88,118.3 127.63,115.11 134.01,108.72 C140.46,102.28 143.69,94.49 143.69,85.38 C143.69,76.33 140.46,68.58 134.01,62.13 C127.56,55.68 119.81,52.46 110.76,52.46 C101.65,52.46 93.87,55.68 87.42,62.13 C81.03,68.52 77.84,76.27 77.84,85.38z M95.42,101.38 C91.26,97.04 89.19,91.7 89.19,85.38 C89.19,79.12 91.26,73.82 95.42,69.48 C99.63,65.08 104.75,62.87 110.76,62.87 C116.84,62.87 121.98,65.08 126.2,69.48 C130.35,73.82 132.43,79.12 132.43,85.38 C132.43,91.7 130.35,97.04 126.2,101.38 C122.05,105.72 116.9,107.89 110.76,107.89 C104.69,107.89 99.57,105.72 95.42,101.38z M211.2,53.76 C211.2,53.76 186.84,93.1 186.84,93.1 C186.84,93.1 162.47,53.76 162.47,53.76 C162.47,53.76 154.47,53.76 154.47,53.76 C154.47,53.76 154.47,117 154.47,117 C154.47,117 165.73,117 165.73,117 C165.73,117 165.54,78.13 165.54,78.13 C165.54,78.13 183.49,106.86 183.49,106.86 C183.49,106.86 190.28,106.86 190.28,106.86 C190.28,106.86 207.95,78.5 207.95,78.5 C207.95,78.5 207.95,117 207.95,117 C207.95,117 219.2,117 219.2,117 C219.2,117 219.2,53.76 219.2,53.76 C219.2,53.76 211.2,53.76 211.2,53.76z M231.85,117 C231.85,117 243.01,117 243.01,117 C243.01,117 243.01,98.49 243.01,98.49 C243.01,98.49 254.08,98.49 254.08,98.49 C262.14,98.49 268.55,96.42 273.33,92.26 C278.22,88.11 280.67,82.56 280.67,75.61 C280.67,69.1 278.38,63.84 273.79,59.8 C269.2,55.78 263.16,53.76 255.66,53.76 C255.66,53.76 231.85,53.76 231.85,53.76 C231.85,53.76 231.85,117 231.85,117z M243.01,64.08 C243.01,64.08 255.29,64.08 255.29,64.08 C259.56,64.08 263.02,65.14 265.65,67.24 C268.29,69.35 269.61,72.14 269.61,75.61 C269.61,79.4 268.29,82.45 265.65,84.78 C263.02,87.1 259.56,88.26 255.29,88.26 C255.29,88.26 243.01,88.26 243.01,88.26 C243.01,88.26 243.01,64.08 243.01,64.08z M298.99,106.96 C298.99,106.96 298.99,53.76 298.99,53.76 C298.99,53.76 287.83,53.76 287.83,53.76 C287.83,53.76 287.83,117 287.83,117 C287.83,117 332.29,117 332.29,117 C332.29,117 332.29,106.96 332.29,106.96 C332.29,106.96 298.99,106.96 298.99,106.96z M340.19,53.76 C340.19,53.76 340.19,117 340.19,117 C340.19,117 351.35,117 351.35,117 C351.35,117 351.35,53.76 351.35,53.76 C351.35,53.76 340.19,53.76 340.19,53.76z M413.01,117 C413.01,117 424.82,117 424.82,117 C424.82,117 397.2,53.39 397.2,53.39 C397.2,53.39 386.79,53.39 386.79,53.39 C386.79,53.39 358.98,117 358.98,117 C358.98,117 370.98,117 370.98,117 C370.98,117 376.84,102.96 376.84,102.96 C376.84,102.96 407.06,102.96 407.06,102.96 C407.06,102.96 413.01,117 413.01,117z M381.21,92.63 C381.21,92.63 391.9,66.97 391.9,66.97 C391.9,66.97 402.78,92.63 402.78,92.63 C402.78,92.63 381.21,92.63 381.21,92.63z M477.18,53.76 C477.18,53.76 477.18,97.38 477.18,97.38 C477.18,97.38 440.82,53.76 440.82,53.76 C440.82,53.76 432.36,53.76 432.36,53.76 C432.36,53.76 432.36,117 432.36,117 C432.36,117 443.52,117 443.52,117 C443.52,117 443.52,74.41 443.52,74.41 C443.52,74.41 479.51,117 479.51,117 C479.51,117 488.25,117 488.25,117 C488.25,117 488.25,53.76 488.25,53.76 C488.25,53.76 477.18,53.76 477.18,53.76z M551.58,53.76 C551.58,53.76 496.43,53.76 496.43,53.76 C496.43,53.76 496.43,64.08 496.43,64.08 C496.43,64.08 518.48,64.08 518.48,64.08 C518.48,64.08 518.48,117 518.48,117 C518.48,117 529.64,117 529.64,117 C529.64,117 529.64,64.08 529.64,64.08 C529.64,64.08 551.58,64.08 551.58,64.08 C551.58,64.08 551.58,53.76 551.58,53.76z" style="display: inherit;"></path></g></g></svg>